<svg id="Group_56" data-name="Group 56" xmlns="http://www.w3.org/2000/svg" width="33.459" height="47.236" viewBox="0 0 33.459 47.236">
  <defs>
    <style>
      .cls-1 {
        fill: #c25238;
      }
    </style>
  </defs>
  <path id="Path_582" data-name="Path 582" class="cls-1" d="M28.538,0H10.825a.991.991,0,0,0-.7.287L.287,10.128a.991.991,0,0,0-.287.7v31.49a4.927,4.927,0,0,0,4.92,4.92H28.538a4.927,4.927,0,0,0,4.92-4.92V4.92A4.927,4.927,0,0,0,28.538,0ZM31.49,42.315a2.956,2.956,0,0,1-2.952,2.952H4.92a2.956,2.956,0,0,1-2.952-2.952V11.232l9.264-9.264H28.538A2.956,2.956,0,0,1,31.49,4.92Z"/>
  <path id="Path_583" data-name="Path 583" class="cls-1" d="M23.1,11.745H7.357A2.956,2.956,0,0,0,4.4,14.7V34.379a2.956,2.956,0,0,0,2.952,2.952H23.1a2.956,2.956,0,0,0,2.952-2.952V14.7A2.956,2.956,0,0,0,23.1,11.745Zm.984,22.634a.985.985,0,0,1-.984.984H7.357a.984.984,0,0,1-.984-.984V14.7a.984.984,0,0,1,.984-.984H23.1a.985.985,0,0,1,.984.984V34.379Z" transform="translate(1.5 4)"/>
  <path id="Path_584" data-name="Path 584" class="cls-1" d="M25.07,20.554H5.389a.984.984,0,1,0,0,1.968H25.07a.984.984,0,0,0,0-1.968Z" transform="translate(1.5 7)"/>
  <path id="Path_585" data-name="Path 585" class="cls-1" d="M9.793,11.745a.984.984,0,0,0-.984.984v5.9a.984.984,0,1,0,1.968,0v-5.9A.984.984,0,0,0,9.793,11.745Z" transform="translate(3 4)"/>
  <path id="Path_586" data-name="Path 586" class="cls-1" d="M12.729,16.15a.984.984,0,0,0-.984.984v5.9a.984.984,0,1,0,1.968,0v-5.9A.984.984,0,0,0,12.729,16.15Z" transform="translate(4 5.5)"/>
  <path id="Path_587" data-name="Path 587" class="cls-1" d="M15.666,11.745a.985.985,0,0,0-.984.984v5.9a.984.984,0,1,0,1.968,0v-5.9A.984.984,0,0,0,15.666,11.745Z" transform="translate(5 4)"/>
  <path id="Path_588" data-name="Path 588" class="cls-1" d="M12.729,24.958a.985.985,0,0,0-.984.984v5.9a.984.984,0,1,0,1.968,0v-5.9A.984.984,0,0,0,12.729,24.958Z" transform="translate(4 8.5)"/>
  <path id="Path_589" data-name="Path 589" class="cls-1" d="M9.793,20.554a.984.984,0,0,0-.984.984v5.9a.984.984,0,1,0,1.968,0v-5.9A.984.984,0,0,0,9.793,20.554Z" transform="translate(3 7)"/>
  <path id="Path_590" data-name="Path 590" class="cls-1" d="M15.666,20.554a.985.985,0,0,0-.984.984v5.9a.984.984,0,1,0,1.968,0v-5.9A.984.984,0,0,0,15.666,20.554Z" transform="translate(5 7)"/>
</svg>
