<svg width="50" height="50" viewBox="0 0 50 50" fill="none" xmlns="http://www.w3.org/2000/svg">
<circle cx="25" cy="25" r="25" fill="#1062B5"/>
<path fill-rule="evenodd" clip-rule="evenodd" d="M30.9205 22.7071C30.4812 23.0976 29.7688 23.0976 29.3295 22.7071L24.5 18.4142L19.6705 22.7071C19.2312 23.0976 18.5188 23.0976 18.0795 22.7071C17.6402 22.3166 17.6402 21.6834 18.0795 21.2929L23.7045 16.2929C24.1438 15.9024 24.8562 15.9024 25.2955 16.2929L30.9205 21.2929C31.3598 21.6834 31.3598 22.3166 30.9205 22.7071ZM29.3295 15.7071L24.5 11.4142L19.6705 15.7071C19.2312 16.0976 18.5188 16.0976 18.0795 15.7071C17.6402 15.3166 17.6402 14.6834 18.0795 14.2929L23.7045 9.29289C24.1438 8.90237 24.8562 8.90237 25.2955 9.29289L30.9205 14.2929C31.3598 14.6834 31.3598 15.3166 30.9205 15.7071C30.4812 16.0976 29.7688 16.0976 29.3295 15.7071Z" fill="white"/>
<mask id="mask0" mask-type="alpha" maskUnits="userSpaceOnUse" x="17" y="9" width="15" height="14">
<path fill-rule="evenodd" clip-rule="evenodd" d="M30.9205 22.7071C30.4812 23.0976 29.7688 23.0976 29.3295 22.7071L24.5 18.4142L19.6705 22.7071C19.2312 23.0976 18.5188 23.0976 18.0795 22.7071C17.6402 22.3166 17.6402 21.6834 18.0795 21.2929L23.7045 16.2929C24.1438 15.9024 24.8562 15.9024 25.2955 16.2929L30.9205 21.2929C31.3598 21.6834 31.3598 22.3166 30.9205 22.7071ZM29.3295 15.7071L24.5 11.4142L19.6705 15.7071C19.2312 16.0976 18.5188 16.0976 18.0795 15.7071C17.6402 15.3166 17.6402 14.6834 18.0795 14.2929L23.7045 9.29289C24.1438 8.90237 24.8562 8.90237 25.2955 9.29289L30.9205 14.2929C31.3598 14.6834 31.3598 15.3166 30.9205 15.7071C30.4812 16.0976 29.7688 16.0976 29.3295 15.7071Z" fill="white"/>
</mask>
<g mask="url(#mask0)">
<rect x="11" y="28" width="24" height="27" transform="rotate(-90 11 28)" fill="white"/>
</g>
<path d="M19.791 29.708H16.7422V38H14.6914V29.708H11.6836V28.0469H19.791V29.708ZM28.9512 33.249C28.9512 34.2288 28.778 35.0879 28.4316 35.8262C28.0853 36.5645 27.5885 37.1341 26.9414 37.5352C26.2988 37.9362 25.5605 38.1367 24.7266 38.1367C23.9017 38.1367 23.1657 37.9385 22.5186 37.542C21.8714 37.1455 21.3701 36.5804 21.0146 35.8467C20.6592 35.1084 20.4792 34.2607 20.4746 33.3037V32.8115C20.4746 31.8317 20.6501 30.9704 21.001 30.2275C21.3564 29.4801 21.8555 28.9082 22.498 28.5117C23.1452 28.1107 23.8835 27.9102 24.7129 27.9102C25.5423 27.9102 26.2783 28.1107 26.9209 28.5117C27.568 28.9082 28.0671 29.4801 28.418 30.2275C28.7734 30.9704 28.9512 31.8294 28.9512 32.8047V33.249ZM26.873 32.7979C26.873 31.7542 26.6862 30.9613 26.3125 30.4189C25.9388 29.8766 25.4056 29.6055 24.7129 29.6055C24.0247 29.6055 23.4938 29.8743 23.1201 30.4121C22.7464 30.9453 22.5573 31.7292 22.5527 32.7637V33.249C22.5527 34.2653 22.7396 35.0537 23.1133 35.6143C23.487 36.1748 24.0247 36.4551 24.7266 36.4551C25.4147 36.4551 25.9434 36.1862 26.3125 35.6484C26.6816 35.1061 26.8685 34.3177 26.873 33.2832V32.7979ZM32.4922 34.4932V38H30.4414V28.0469H34.3242C35.0716 28.0469 35.7279 28.1836 36.293 28.457C36.8626 28.7305 37.3001 29.1201 37.6055 29.626C37.9108 30.1273 38.0635 30.6992 38.0635 31.3418C38.0635 32.3171 37.7285 33.0872 37.0586 33.6523C36.3932 34.2129 35.4704 34.4932 34.29 34.4932H32.4922ZM32.4922 32.832H34.3242C34.8665 32.832 35.279 32.7044 35.5615 32.4492C35.8486 32.194 35.9922 31.8294 35.9922 31.3555C35.9922 30.8678 35.8486 30.4736 35.5615 30.1729C35.2744 29.8721 34.8779 29.7171 34.3721 29.708H32.4922V32.832Z" fill="white"/>
</svg>
